<?xml version="1.0" standalone="no"?>
<!DOCTYPE svg PUBLIC "-//W3C//DTD SVG 20010904//EN"
 "http://www.w3.org/TR/2001/REC-SVG-20010904/DTD/svg10.dtd">
<svg version="1.0" xmlns="http://www.w3.org/2000/svg"
 width="478.000000pt" height="444.000000pt" viewBox="0 0 478.000000 444.000000"
 preserveAspectRatio="xMidYMid meet">
<metadata>
Created by potrace 1.15, written by Peter Selinger 2001-2017
</metadata>
<g transform="translate(0.000000,444.000000) scale(0.100000,-0.100000)"
fill="#000000" stroke="none">
<path d="M1597 4113 c-4 -3 -7 -101 -7 -217 0 -235 -5 -215 77 -312 l43 -51
-20 -279 c-29 -418 -50 -717 -53 -738 -2 -16 -20 -23 -102 -42 -201 -45 -360
-120 -419 -196 -66 -87 -34 -161 99 -226 175 -86 429 -131 848 -153 197 -10
403 -10 480 -1 37 4 38 5 20 24 -26 29 -131 85 -224 119 -133 48 -260 77 -484
109 -115 17 -217 32 -225 33 -57 12 279 96 492 123 172 21 532 16 693 -11
l110 -19 -50 -9 c-110 -19 -353 -69 -403 -83 -51 -15 -62 -34 -20 -34 31 0
243 -49 333 -77 44 -14 143 -50 220 -81 l140 -55 90 13 c230 32 432 107 480
177 81 119 -41 237 -335 326 -63 19 -129 38 -146 41 l-30 7 -22 277 c-12 152
-29 386 -38 520 l-16 242 56 66 56 66 0 224 0 224 -172 -2 -173 -3 -3 -87 -3
-88 -109 0 -110 0 0 90 0 90 -260 0 -260 0 0 -90 0 -90 -110 0 -110 0 0 90 0
90 -163 0 c-90 0 -167 -3 -170 -7z m959 -767 c100 -46 165 -127 190 -235 10
-39 14 -139 14 -338 l0 -283 -59 0 -60 0 -3 308 c-3 292 -4 309 -25 347 -76
142 -244 169 -354 56 -70 -72 -73 -93 -66 -427 l6 -284 -60 0 -60 0 3 313 3
312 33 67 c62 126 162 187 307 187 64 1 90 -4 131 -23z"/>
<path d="M4127 1695 c-111 -28 -166 -145 -118 -251 22 -49 53 -73 140 -108
102 -41 124 -73 80 -117 -29 -29 -98 -22 -156 14 l-42 26 -26 -46 c-14 -26
-24 -52 -21 -59 10 -25 84 -65 142 -76 103 -19 203 22 239 98 21 44 21 123 2
161 -23 43 -55 68 -141 109 -90 43 -109 68 -82 109 21 32 70 34 127 4 23 -11
42 -19 44 -17 1 2 14 22 29 46 32 51 28 60 -42 90 -63 26 -117 32 -175 17z"/>
<path d="M1342 1674 c-63 -31 -105 -80 -133 -154 -31 -81 -24 -214 14 -292 48
-97 141 -158 243 -158 101 0 215 88 250 193 26 74 23 195 -5 268 -26 68 -100
142 -157 158 -71 20 -155 14 -212 -15z m205 -138 c48 -56 58 -182 21 -256 -26
-51 -56 -70 -112 -70 -31 0 -45 7 -71 34 -36 38 -45 70 -45 158 0 74 20 122
62 148 46 29 113 22 145 -14z"/>
<path d="M3173 1693 c-22 -4 -23 -8 -23 -119 l0 -114 -95 0 -95 0 0 115 0 116
-67 -3 -68 -3 -3 -302 -2 -303 70 0 70 0 0 125 0 125 95 0 95 0 0 -125 0 -125
70 0 70 0 0 304 0 303 -37 7 c-40 6 -44 6 -80 -1z"/>
<path d="M489 1400 c-1 -159 -2 -296 -3 -302 -1 -9 20 -14 66 -16 l68 -3 2
183 3 183 50 -104 c28 -58 55 -114 60 -125 8 -16 20 -21 49 -21 l38 0 62 122
c33 68 65 123 69 123 4 0 7 -80 5 -177 l-3 -178 65 0 65 0 3 303 2 302 -72 0
-73 0 -79 -156 -80 -155 -54 113 c-30 62 -62 132 -73 156 l-18 42 -76 0 -75 0
-1 -290z"/>
<path d="M1866 1396 c-53 -162 -96 -299 -96 -305 0 -7 26 -11 68 -11 l69 0 18
61 19 61 99 -4 100 -4 13 -50 c7 -27 13 -52 14 -56 0 -5 34 -8 75 -8 41 0 75
1 75 3 0 1 -44 137 -98 302 l-98 300 -81 3 -81 3 -96 -295z m217 -3 l25 -83
-68 0 -69 0 31 93 c43 132 39 125 48 97 4 -14 19 -62 33 -107z"/>
<path d="M2290 1625 l0 -65 80 0 80 0 0 -240 0 -240 65 0 65 0 0 240 0 240 75
0 75 0 0 65 0 65 -220 0 -220 0 0 -65z"/>
<path d="M3567 1683 c-2 -4 -14 -37 -25 -73 -11 -36 -52 -164 -91 -286 -39
-121 -71 -226 -71 -232 0 -8 23 -12 69 -12 l70 0 15 54 16 53 92 6 c50 3 95 4
99 1 4 -2 13 -29 20 -59 l12 -55 74 0 c40 0 73 4 73 9 0 4 -44 140 -98 302
l-99 294 -76 3 c-41 2 -77 -1 -80 -5z m128 -325 l14 -48 -63 0 -64 0 31 107
31 107 18 -59 c10 -33 25 -81 33 -107z"/>
<path d="M1328 860 c-79 -24 -128 -98 -128 -194 0 -70 25 -124 77 -163 33 -25
44 -28 118 -28 73 0 86 3 131 30 l49 31 0 79 0 80 -84 3 c-46 2 -88 -1 -94 -7
-5 -5 -6 -26 -3 -45 7 -35 8 -36 51 -36 57 0 61 -24 8 -46 -79 -33 -143 9
-151 99 -4 46 -1 57 23 85 22 26 34 32 67 32 24 0 51 -8 67 -20 l28 -19 32 33
c31 32 31 33 12 50 -43 39 -138 56 -203 36z"/>
<path d="M1843 833 c-8 -21 -39 -103 -69 -183 -29 -80 -56 -153 -60 -163 -6
-16 -1 -18 46 -15 51 3 54 5 65 38 l12 35 73 0 73 0 12 -35 c11 -33 14 -35 63
-38 29 -2 52 1 51 5 0 4 -33 94 -72 198 l-73 190 -52 3 c-52 3 -53 3 -69 -35z
m87 -144 c11 -30 20 -57 20 -61 0 -5 -21 -8 -46 -8 -33 0 -45 4 -42 13 3 6 13
36 23 64 10 29 20 51 22 49 2 -2 13 -28 23 -57z"/>
<path d="M2266 855 c-3 -9 -3 -99 1 -200 l6 -185 44 0 43 0 0 118 1 117 45
-82 c61 -110 74 -110 133 -3 25 44 47 80 50 80 3 0 7 -51 8 -113 l1 -112 46
-3 46 -3 -2 198 -3 198 -47 3 -47 3 -56 -95 c-31 -53 -58 -96 -60 -96 -2 0
-21 30 -41 68 -65 117 -70 122 -119 122 -29 0 -45 -5 -49 -15z"/>
<path d="M2877 864 c-4 -4 -7 -94 -7 -201 l0 -193 141 0 140 0 -3 43 -3 42
-87 -3 -87 -4 -7 36 c-3 21 -3 40 1 44 4 4 39 7 78 7 l72 0 0 40 0 40 -77 3
-78 3 0 29 0 29 98 3 97 3 0 40 0 40 -136 3 c-74 1 -138 -1 -142 -4z"/>
<path d="M3395 861 c-80 -33 -94 -158 -23 -201 17 -10 53 -24 79 -30 62 -15
78 -33 54 -60 -22 -24 -47 -25 -109 -4 -47 16 -48 16 -64 -7 -24 -34 -22 -41
23 -66 29 -17 56 -23 100 -23 78 0 124 23 149 73 37 76 -7 141 -111 168 -23 6
-49 19 -58 29 -15 16 -15 19 1 35 12 11 26 15 46 11 83 -17 82 -17 102 10 15
22 16 28 5 39 -34 31 -145 46 -194 26z"/>
</g>
</svg>
